<svg width="940" height="540"><g transform="translate(60,50)"><rect class="vertical" z-index="500" width="5" height="415" x="415.33331298828125" y="-25" style="fill-opacity: 0; stroke: transparent;"></rect><rect width="600" height="390" style="fill-opacity: 0; shape-rendering: crispedges;"></rect><rect x="620" y="10" width="20" height="5" fill="red"></rect><text x="645" y="15" style="font-size: 10px; font-family: sans-serif;">Mapped genes</text><rect x="620" y="25" width="20" height="5" fill="blue"></rect><text x="645" y="30" style="font-size: 10px; font-family: sans-serif;">Non-mapped protein coding genes</text><rect x="620" y="40" width="20" height="5" fill="#383838"></rect><text x="645" y="45" style="font-size: 10px; font-family: sans-serif;">Non-mapped non-coding genes</text><g><rect class="genesrect" x="0" y="20.000000000000004" width="0" height="1" fill="none"></rect></g><g><rect class="genesrect" x="0" y="20.000000000000004" width="0" height="1" fill="none"></rect></g><g><rect class="genesrect" x="0" y="20.000000000000004" width="0" height="1" fill="none"></rect></g><g><rect class="genesrect" x="0" y="40.00000000000001" width="0" height="1" fill="none"></rect></g><g><rect class="genesrect" x="0" y="20.000000000000004" width="0" height="1" fill="none"></rect></g><g><rect class="genesrect" x="0" y="20.000000000000004" width="0" height="1" fill="none"></rect></g><g><rect class="genesrect" x="0" y="20.000000000000004" width="0" height="1" fill="none"></rect></g><g><rect class="genesrect" x="0" y="20.000000000000004" width="0" height="1" fill="none"></rect></g><g><rect class="genesrect" x="40.034709508192094" y="20.000000000000004" width="5.857609872025215" height="1" fill="red"></rect></g><g><rect class="genesrect" x="74.99475097297012" y="20.000000000000004" width="109.54491189241962" height="1" fill="red"></rect></g><g><rect class="genesrect" x="240.5140699281969" y="20.000000000000004" width="1.0163333492241406" height="1" fill="red"></rect></g><g><rect class="genesrect" x="267.85161127379405" y="20.000000000000004" width="236.28228912351068" height="1" fill="red"></rect></g><g><rect class="genesrect" x="501.431792570625" y="40.00000000000001" width="3.724527004342292" height="1" fill="red"></rect></g><g><rect class="genesrect" x="651.8978148833017" y="40.00000000000001" width="0" height="1" fill="none"></rect></g><g><rect class="genesrect" x="670.5387073903286" y="20.000000000000004" width="0" height="1" fill="none"></rect></g><g><rect class="genesrect" x="791.4580326342444" y="20.000000000000004" width="0" height="1" fill="none"></rect></g><g><rect class="genesrect" x="1568.8526286214578" y="20.000000000000004" width="0" height="1" fill="none"></rect></g><g><rect class="genesrect" x="2977.992731492255" y="40.00000000000001" width="0" height="1" fill="none"></rect></g><g><rect class="genesrect" x="3336.6001722289675" y="40.00000000000001" width="0" height="1" fill="none"></rect></g><g><rect class="genesrect" x="3962.402867642388" y="40.00000000000001" width="0" height="1" fill="none"></rect></g><text class="geneName" text-anchor="middle" x="-706.8922514218082" y="20.000000000000004" dy="-.7em" style="font-size: 9px; font-family: sans-serif; fill: none;">←PIP4K2A</text><text class="geneName" text-anchor="middle" x="-595.9110840179102" y="20.000000000000004" dy="-.7em" style="font-size: 9px; font-family: sans-serif; fill: none;">RNU6-413P→</text><text class="geneName" text-anchor="middle" x="-215.40987547380988" y="20.000000000000004" dy="-.7em" style="font-size: 9px; font-family: sans-serif; fill: none;">ARMC3→</text><text class="geneName" text-anchor="middle" x="-276.61961645080896" y="40.00000000000001" dy="-.7em" style="font-size: 9px; font-family: sans-serif; fill: none;">RNA5SP304→</text><text class="geneName" text-anchor="middle" x="-159.2848441571506" y="20.000000000000004" dy="-.7em" style="font-size: 9px; font-family: sans-serif; fill: none;">←AL139815.1</text><text class="geneName" text-anchor="middle" x="-86.9623804515094" y="20.000000000000004" dy="-.7em" style="font-size: 9px; font-family: sans-serif; fill: none;">MSRB2→</text><text class="geneName" text-anchor="middle" x="-63.15461960022354" y="20.000000000000004" dy="-.7em" style="font-size: 9px; font-family: sans-serif; fill: none;">YWHAZP3→</text><text class="geneName" text-anchor="middle" x="-18.362922293100855" y="20.000000000000004" dy="-.7em" style="font-size: 9px; font-family: sans-serif; fill: none;">SNORA40→</text><text class="geneName" text-anchor="middle" x="42.963514444204705" y="20.000000000000004" dy="-.7em" style="font-size: 9px; font-family: sans-serif; fill: black;">PTF1A→</text><text class="geneName" text-anchor="middle" x="129.76720691917993" y="20.000000000000004" dy="-.7em" style="font-size: 9px; font-family: sans-serif; fill: black;">←C10orf115</text><text class="geneName" text-anchor="middle" x="241.02223660280896" y="20.000000000000004" dy="-.7em" style="font-size: 9px; font-family: sans-serif; fill: black;">RP11-215C7.3→</text><text class="geneName" text-anchor="middle" x="385.9927558355494" y="20.000000000000004" dy="-.7em" style="font-size: 9px; font-family: sans-serif; fill: black;">←C10orf67</text><text class="geneName" text-anchor="middle" x="503.29405607279614" y="40.00000000000001" dy="-.7em" style="font-size: 9px; font-family: sans-serif; fill: black;">RP11-371A19.2→</text><text class="geneName" text-anchor="middle" x="625.9489074416508" y="40.00000000000001" dy="-.7em" style="font-size: 9px; font-family: sans-serif; fill: none;">MIR1254-2→</text><text class="geneName" text-anchor="middle" x="635.2693536951642" y="20.000000000000004" dy="-.7em" style="font-size: 9px; font-family: sans-serif; fill: none;">←snoU13</text><text class="geneName" text-anchor="middle" x="695.7290163171222" y="20.000000000000004" dy="-.7em" style="font-size: 9px; font-family: sans-serif; fill: none;">OTUD1→</text><text class="geneName" text-anchor="middle" x="1084.426314310729" y="20.000000000000004" dy="-.7em" style="font-size: 9px; font-family: sans-serif; fill: none;">KIAA1217→</text><text class="geneName" text-anchor="middle" x="1788.9963657461276" y="40.00000000000001" dy="-.7em" style="font-size: 9px; font-family: sans-serif; fill: none;">RP11-183E9.2→</text><text class="geneName" text-anchor="middle" x="1968.3000861144837" y="40.00000000000001" dy="-.7em" style="font-size: 9px; font-family: sans-serif; fill: none;">MIR603→</text><text class="geneName" text-anchor="middle" x="2281.201433821194" y="40.00000000000001" dy="-.7em" style="font-size: 9px; font-family: sans-serif; fill: none;">←AL353583.1</text><g class="x axis genes" transform="translate(0,60)"><g class="tick" transform="translate(97.07109363351191,0)" style="opacity: 1;"><line y2="6" x2="0" style="fill: none; stroke: grey;"></line></g><g class="tick" transform="translate(249.2168045952058,0)" style="opacity: 1;"><line y2="6" x2="0" style="fill: none; stroke: grey;"></line></g><g class="tick" transform="translate(401.36251555689967,0)" style="opacity: 1;"><line y2="6" x2="0" style="fill: none; stroke: grey;"></line></g><g class="tick" transform="translate(553.5082265185936,0)" style="opacity: 1;"><line y2="6" x2="0" style="fill: none; stroke: grey;"></line></g><path class="domain" d="M0,6V0H600V6" style="fill: none; stroke: grey;"></path></g><g><rect class="exons" x="0" y="15.500000000000004" width="0" height="9" fill="none"></rect></g><g><rect class="exons" x="0" y="15.500000000000004" width="0" height="9" fill="none"></rect></g><g><rect class="exons" x="0" y="15.500000000000004" width="0" height="9" fill="none"></rect></g><g><rect class="exons" x="0" y="15.500000000000004" width="0" height="9" fill="none"></rect></g><g><rect class="exons" x="0" y="15.500000000000004" width="0" height="9" fill="none"></rect></g><g><rect class="exons" x="0" y="15.500000000000004" width="0" height="9" fill="none"></rect></g><g><rect class="exons" x="0" y="15.500000000000004" width="0" height="9" fill="none"></rect></g><g><rect class="exons" x="0" y="15.500000000000004" width="0" height="9" fill="none"></rect></g><g><rect class="exons" x="0" y="15.500000000000004" width="0" height="9" fill="none"></rect></g><g><rect class="exons" x="0" y="15.500000000000004" width="0" height="9" fill="none"></rect></g><g><rect class="exons" x="0" y="15.500000000000004" width="0" height="9" fill="none"></rect></g><g><rect class="exons" x="0" y="15.500000000000004" width="0" height="9" fill="none"></rect></g><g><rect class="exons" x="0" y="15.500000000000004" width="0" height="9" fill="none"></rect></g><g><rect class="exons" x="0" y="15.500000000000004" width="0" height="9" fill="none"></rect></g><g><rect class="exons" x="0" y="15.500000000000004" width="0" height="9" fill="none"></rect></g><g><rect class="exons" x="0" y="15.500000000000004" width="0" height="9" fill="none"></rect></g><g><rect class="exons" x="0" y="15.500000000000004" width="0" height="9" fill="none"></rect></g><g><rect class="exons" x="0" y="15.500000000000004" width="0" height="9" fill="none"></rect></g><g><rect class="exons" x="0" y="15.500000000000004" width="0" height="9" fill="none"></rect></g><g><rect class="exons" x="0" y="15.500000000000004" width="0" height="9" fill="none"></rect></g><g><rect class="exons" x="0" y="15.500000000000004" width="0" height="9" fill="none"></rect></g><g><rect class="exons" x="0" y="15.500000000000004" width="0" height="9" fill="none"></rect></g><g><rect class="exons" x="0" y="15.500000000000004" width="0" height="9" fill="none"></rect></g><g><rect class="exons" x="0" y="15.500000000000004" width="0" height="9" fill="none"></rect></g><g><rect class="exons" x="0" y="15.500000000000004" width="0" height="9" fill="none"></rect></g><g><rect class="exons" x="0" y="15.500000000000004" width="0" height="9" fill="none"></rect></g><g><rect class="exons" x="0" y="15.500000000000004" width="0" height="9" fill="none"></rect></g><g><rect class="exons" x="0" y="15.500000000000004" width="0" height="9" fill="none"></rect></g><g><rect class="exons" x="0" y="15.500000000000004" width="0" height="9" fill="none"></rect></g><g><rect class="exons" x="0" y="15.500000000000004" width="0" height="9" fill="none"></rect></g><g><rect class="exons" x="0" y="15.500000000000004" width="0" height="9" fill="none"></rect></g><g><rect class="exons" x="0" y="15.500000000000004" width="0" height="9" fill="none"></rect></g><g><rect class="exons" x="0" y="15.500000000000004" width="0" height="9" fill="none"></rect></g><g><rect class="exons" x="0" y="15.500000000000004" width="0" height="9" fill="none"></rect></g><g><rect class="exons" x="0" y="15.500000000000004" width="0" height="9" fill="none"></rect></g><g><rect class="exons" x="0" y="15.500000000000004" width="0" height="9" fill="none"></rect></g><g><rect class="exons" x="0" y="15.500000000000004" width="0" height="9" fill="none"></rect></g><g><rect class="exons" x="0" y="15.500000000000004" width="0" height="9" fill="none"></rect></g><g><rect class="exons" x="0" y="15.500000000000004" width="0" height="9" fill="none"></rect></g><g><rect class="exons" x="0" y="15.500000000000004" width="0" height="9" fill="none"></rect></g><g><rect class="exons" x="0" y="15.500000000000004" width="0" height="9" fill="none"></rect></g><g><rect class="exons" x="0" y="15.500000000000004" width="0" height="9" fill="none"></rect></g><g><rect class="exons" x="0" y="15.500000000000004" width="0" height="9" fill="none"></rect></g><g><rect class="exons" x="0" y="15.500000000000004" width="0" height="9" fill="none"></rect></g><g><rect class="exons" x="0" y="15.500000000000004" width="0" height="9" fill="none"></rect></g><g><rect class="exons" x="0" y="15.500000000000004" width="0" height="9" fill="none"></rect></g><g><rect class="exons" x="0" y="15.500000000000004" width="0" height="9" fill="none"></rect></g><g><rect class="exons" x="0" y="15.500000000000004" width="0" height="9" fill="none"></rect></g><g><rect class="exons" x="0" y="15.500000000000004" width="0" height="9" fill="none"></rect></g><g><rect class="exons" x="0" y="15.500000000000004" width="0" height="9" fill="none"></rect></g><g><rect class="exons" x="0" y="15.500000000000004" width="0" height="9" fill="none"></rect></g><g><rect class="exons" x="40.034709508192094" y="15.500000000000004" width="3.003356334383838" height="9" fill="red"></rect></g><g><rect class="exons" x="44.22480238807715" y="15.500000000000004" width="1.6675169921401576" height="9" fill="red"></rect></g><g><rect class="exons" x="184.27492932831638" y="15.500000000000004" width="0.26473353707336855" height="9" fill="red"></rect></g><g><rect class="exons" x="135.63394553386286" y="15.500000000000004" width="0.2251756522232995" height="9" fill="red"></rect></g><g><rect class="exons" x="135.1896800578547" y="15.500000000000004" width="0.18257485315402278" height="9" fill="red"></rect></g><g><rect class="exons" x="74.99475097297012" y="15.500000000000004" width="1.3358393422436734" height="9" fill="red"></rect></g><g><rect class="exons" x="501.2766039454441" y="15.500000000000004" width="0.17648902471557903" height="9" fill="red"></rect></g><g><rect class="exons" x="468.2792421520719" y="15.500000000000004" width="0.3651497063081024" height="9" fill="red"></rect></g><g><rect class="exons" x="435.8174332612849" y="15.500000000000004" width="0.4351367333504186" height="9" fill="red"></rect></g><g><rect class="exons" x="430.7874960568913" y="15.500000000000004" width="0.2251756522232995" height="9" fill="red"></rect></g><g><rect class="exons" x="377.7282008161102" y="15.500000000000004" width="0.47165170398125156" height="9" fill="red"></rect></g><g><rect class="exons" x="340.6898489395954" y="15.500000000000004" width="0.44730839022741975" height="9" fill="red"></rect></g><g><rect class="exons" x="336.9409786214993" y="15.500000000000004" width="0.1764890247155222" height="9" fill="red"></rect></g><g><rect class="exons" x="312.9415141744017" y="15.500000000000004" width="0.1977894242502316" height="9" fill="red"></rect></g><g><rect class="exons" x="267.85161127379405" y="15.500000000000004" width="0.17953193893481512" height="9" fill="red"></rect></g><g><rect class="exons" x="503.29405607279614" y="15.500000000000004" width="0.83984432450859" height="9" fill="red"></rect></g><g><rect class="exons" x="418.6036675230789" y="15.500000000000004" width="6.636595912149062" height="9" fill="red"></rect></g><g><rect class="exons" x="791.4580326342444" y="15.500000000000004" width="0" height="9" fill="none"></rect></g><g><rect class="exons" x="1568.8526286214578" y="15.500000000000004" width="0" height="9" fill="none"></rect></g><g><rect class="exons" x="2519.6994209334407" y="15.500000000000004" width="0" height="9" fill="none"></rect></g><g><rect class="exons" x="3166.017444012936" y="15.500000000000004" width="0" height="9" fill="none"></rect></g><g><rect class="exons" x="3656.666061464864" y="15.500000000000004" width="0" height="9" fill="none"></rect></g><g><rect class="exons" x="3815.281008056649" y="15.500000000000004" width="0" height="9" fill="none"></rect></g><g><rect class="exons" x="3831.685358612539" y="15.500000000000004" width="0" height="9" fill="none"></rect></g><g><rect class="exons" x="3937.706575839086" y="15.500000000000004" width="0" height="9" fill="none"></rect></g><g><rect class="exons" x="4002.4354471106285" y="15.500000000000004" width="0" height="9" fill="none"></rect></g><g><rect class="exons" x="4004.4042126104728" y="15.500000000000004" width="0" height="9" fill="none"></rect></g><g><rect class="exons" x="4023.3676540247384" y="15.500000000000004" width="0" height="9" fill="none"></rect></g><g><rect class="exons" x="4059.5174749492367" y="15.500000000000004" width="0" height="9" fill="none"></rect></g><g><rect class="exons" x="4080.4040381500586" y="15.500000000000004" width="0" height="9" fill="none"></rect></g><g><rect class="exons" x="4085.4522328397675" y="15.500000000000004" width="0" height="9" fill="none"></rect></g><g><rect class="exons" x="4093.184277870841" y="15.500000000000004" width="0" height="9" fill="none"></rect></g><g><rect class="exons" x="4104.178326944932" y="15.500000000000004" width="0" height="9" fill="none"></rect></g><g><rect class="exons" x="4116.027434914629" y="15.500000000000004" width="0" height="9" fill="none"></rect></g><g><rect class="exons" x="4119.800648546479" y="15.500000000000004" width="0" height="9" fill="none"></rect></g><g><rect class="exons" x="4156.044799811774" y="15.500000000000004" width="0" height="9" fill="none"></rect></g><g><rect class="exons" x="4158.619105241246" y="15.500000000000004" width="0" height="9" fill="none"></rect></g><g><rect class="exons" x="1568.9621735333503" y="15.500000000000004" width="0" height="9" fill="none"></rect></g><g><rect class="exons" x="2124.671339906718" y="15.500000000000004" width="0" height="9" fill="none"></rect></g><g><rect class="exons" x="3133.047468447537" y="15.500000000000004" width="0" height="9" fill="none"></rect></g><g><rect class="exons" x="4104.178326944932" y="15.500000000000004" width="0" height="9" fill="none"></rect></g><g><rect class="exons" x="3134.182475451311" y="15.500000000000004" width="0" height="9" fill="none"></rect></g><g><rect class="exons" x="4131.071602814522" y="15.500000000000004" width="0" height="9" fill="none"></rect></g><g><rect class="exons" x="4149.082612078167" y="15.500000000000004" width="0" height="9" fill="none"></rect></g><g><rect class="exons" x="4149.660765779821" y="15.500000000000004" width="0" height="9" fill="none"></rect></g><g><rect class="exons" x="3225.5642323691236" y="15.500000000000004" width="0" height="9" fill="none"></rect></g><g><rect class="exons" x="3865.3004319924153" y="15.500000000000004" width="0" height="9" fill="none"></rect></g><g><rect class="exons" x="4156.044799811774" y="15.500000000000004" width="0" height="9" fill="none"></rect></g><g><rect class="exons" x="3917.3281793128767" y="15.500000000000004" width="0" height="9" fill="none"></rect></g><g><rect class="exons" x="4156.044799811774" y="15.500000000000004" width="0" height="9" fill="none"></rect></g><g><rect class="exons" x="4156.044799811774" y="15.500000000000004" width="0" height="9" fill="none"></rect></g><g><rect class="exons" x="4003.8777884505457" y="15.500000000000004" width="0" height="9" fill="none"></rect></g><g><rect class="exons" x="4059.5174749492367" y="15.500000000000004" width="0" height="9" fill="none"></rect></g><g><rect class="exons" x="4148.2518964963165" y="15.500000000000004" width="0" height="9" fill="none"></rect></g><g><rect class="exons" x="4149.660765779821" y="15.500000000000004" width="0" height="9" fill="none"></rect></g><g><rect class="exons" x="4158.619105241246" y="15.500000000000004" width="0" height="9" fill="none"></rect></g><g><rect class="exons" x="3134.209861679284" y="15.500000000000004" width="0" height="9" fill="none"></rect></g><g><rect class="exons" x="4116.036563657287" y="15.500000000000004" width="0" height="9" fill="none"></rect></g><g><rect class="exons" x="4158.619105241246" y="15.500000000000004" width="0" height="9" fill="none"></rect></g><g><rect class="exons" x="3274.6555674680235" y="15.500000000000004" width="0" height="9" fill="none"></rect></g><g><rect class="exons" x="4116.027434914629" y="15.500000000000004" width="0" height="9" fill="none"></rect></g><g><rect class="exons" x="3962.402867642388" y="35.50000000000001" width="0" height="9" fill="none"></rect></g><g><rect class="exons" x="0" y="15.500000000000004" width="0" height="9" fill="none"></rect></g><g><rect class="exons" x="0" y="35.50000000000001" width="0" height="9" fill="none"></rect></g><g><rect class="exons" x="0" y="15.500000000000004" width="0" height="9" fill="none"></rect></g><g><rect class="exons" x="0" y="15.500000000000004" width="0" height="9" fill="none"></rect></g><g><rect class="exons" x="0" y="15.500000000000004" width="0" height="9" fill="none"></rect></g><g><rect class="exons" x="0" y="15.500000000000004" width="0" height="9" fill="none"></rect></g><g><rect class="exons" x="240.5140699281969" y="15.500000000000004" width="1.0163333492241406" height="9" fill="red"></rect></g><g><rect class="exons" x="501.431792570625" y="35.50000000000001" width="0.4047075911581146" height="9" fill="red"></rect></g><g><rect class="exons" x="502.85283351100725" y="35.50000000000001" width="2.303486063960065" height="9" fill="red"></rect></g><g><rect class="exons" x="651.8978148833017" y="35.50000000000001" width="0" height="9" fill="none"></rect></g><g><rect class="exons" x="670.5387073903286" y="15.500000000000004" width="0" height="9" fill="none"></rect></g><g><rect class="exons" x="2977.992731492255" y="35.50000000000001" width="0" height="9" fill="none"></rect></g><g><rect class="exons" x="3336.6001722289675" y="35.50000000000001" width="0" height="9" fill="none"></rect></g><g><rect class="exons" x="0" y="15.500000000000004" width="0" height="9" fill="none"></rect></g><g><rect class="exons" x="0" y="15.500000000000004" width="0" height="9" fill="none"></rect></g><g><rect class="exons" x="0" y="15.500000000000004" width="0" height="9" fill="none"></rect></g><g><rect class="exons" x="0" y="15.500000000000004" width="0" height="9" fill="none"></rect></g><g><rect class="exons" x="0" y="15.500000000000004" width="0" height="9" fill="none"></rect></g><g><rect class="exons" x="0" y="15.500000000000004" width="0" height="9" fill="none"></rect></g><g><rect class="exons" x="0" y="15.500000000000004" width="0" height="9" fill="none"></rect></g><g><rect class="exons" x="0" y="15.500000000000004" width="0" height="9" fill="none"></rect></g><g><rect class="exons" x="0" y="15.500000000000004" width="0" height="9" fill="none"></rect></g><g><rect class="exons" x="0" y="15.500000000000004" width="0" height="9" fill="none"></rect></g><g><rect class="exons" x="0" y="15.500000000000004" width="0" height="9" fill="none"></rect></g><g><rect class="exons" x="0" y="15.500000000000004" width="0" height="9" fill="none"></rect></g><g><rect class="exons" x="0" y="15.500000000000004" width="0" height="9" fill="none"></rect></g><g><rect class="exons" x="0" y="15.500000000000004" width="0" height="9" fill="none"></rect></g><g><rect class="exons" x="0" y="15.500000000000004" width="0" height="9" fill="none"></rect></g><g><rect class="exons" x="0" y="15.500000000000004" width="0" height="9" fill="none"></rect></g><g><rect class="exons" x="0" y="15.500000000000004" width="0" height="9" fill="none"></rect></g><g><rect class="exons" x="0" y="15.500000000000004" width="0" height="9" fill="none"></rect></g><g><rect class="exons" x="0" y="15.500000000000004" width="0" height="9" fill="none"></rect></g><g><rect class="exons" x="0" y="15.500000000000004" width="0" height="9" fill="none"></rect></g><g><rect class="exons" x="0" y="15.500000000000004" width="0" height="9" fill="none"></rect></g><g><rect class="exons" x="0" y="15.500000000000004" width="0" height="9" fill="none"></rect></g><g><rect class="exons" x="0" y="15.500000000000004" width="0" height="9" fill="none"></rect></g><g><rect class="exons" x="0" y="15.500000000000004" width="0" height="9" fill="none"></rect></g><g><rect class="exons" x="0" y="15.500000000000004" width="0" height="9" fill="none"></rect></g><g><rect class="exons" x="0" y="15.500000000000004" width="0" height="9" fill="none"></rect></g><circle cx="620" cy="120" r="3.5" fill="blue"></circle><text x="630" y="123" style="font-size: 10px; font-family: sans-serif;">exonic SNPs</text><circle cx="620" cy="140" r="3.5" fill="skyblue"></circle><text x="630" y="143" style="font-size: 10px; font-family: sans-serif;">other SNPs</text><circle class="CADDdot" r="3.5" cx="27.272727272725213" cy="185.63043478260872" style="fill: skyblue;"></circle><circle class="CADDdot" r="3.5" cx="27.70177817763719" cy="190.89347826086956" style="fill: skyblue;"></circle><circle class="CADDdot" r="3.5" cx="31.998373055195422" cy="192.5108695652174" style="fill: skyblue;"></circle><circle class="CADDdot" r="3.5" cx="32.91429023518482" cy="197.67608695652174" style="fill: skyblue;"></circle><circle class="CADDdot" r="3.5" cx="37.18045597055072" cy="166.15" style="fill: skyblue;"></circle><circle class="CADDdot" r="3.5" cx="43.403215548884006" cy="157.4695652173913" style="fill: skyblue;"></circle><circle class="CADDdot" r="3.5" cx="44.23088821651561" cy="76.52173913043478" style="fill: blue;"></circle><circle class="CADDdot" r="3.5" cx="54.32727759593362" cy="196.24782608695654" style="fill: skyblue;"></circle><circle class="CADDdot" r="3.5" cx="55.37404008735008" cy="182.88478260869564" style="fill: skyblue;"></circle><circle class="CADDdot" r="3.5" cx="85.14286989411511" cy="181.0586956521739" style="fill: skyblue;"></circle><circle class="CADDdot" r="3.5" cx="116.9382805708899" cy="165.0086956521739" style="fill: skyblue;"></circle><circle class="CADDdot" r="3.5" cx="121.48439441442531" cy="194.72826086956522" style="fill: skyblue;"></circle><circle class="CADDdot" r="3.5" cx="123.63269185320443" cy="201.55652173913043" style="fill: skyblue;"></circle><circle class="CADDdot" r="3.5" cx="149.7682820822042" cy="206.8195652173913" style="fill: skyblue;"></circle><circle class="CADDdot" r="3.5" cx="156.71221233049593" cy="218.5586956521739" style="fill: skyblue;"></circle><circle class="CADDdot" r="3.5" cx="213.31041680824603" cy="198.7" style="fill: skyblue;"></circle><circle class="CADDdot" r="3.5" cx="214.31457850059323" cy="217.61304347826086" style="fill: skyblue;"></circle><circle class="CADDdot" r="3.5" cx="216.64240787830713" cy="170.93695652173912" style="fill: skyblue;"></circle><circle class="CADDdot" r="3.5" cx="224.24056468373414" cy="122.82608695652172" style="fill: skyblue;"></circle><circle class="CADDdot" r="3.5" cx="231.78699194743416" cy="168.45217391304348" style="fill: skyblue;"></circle><circle class="CADDdot" r="3.5" cx="231.86610771713424" cy="201.91521739130437" style="fill: skyblue;"></circle><circle class="CADDdot" r="3.5" cx="264.6656800862562" cy="213.77173913043478" style="fill: skyblue;"></circle><circle class="CADDdot" r="3.5" cx="323.76211713799734" cy="216.40652173913043" style="fill: skyblue;"></circle><circle class="CADDdot" r="3.5" cx="331.1259695485433" cy="216.76521739130433" style="fill: skyblue;"></circle><circle class="CADDdot" r="3.5" cx="356.2573980851959" cy="200.5" style="fill: skyblue;"></circle><circle class="CADDdot" r="3.5" cx="357.3711046894355" cy="215.49347826086955" style="fill: skyblue;"></circle><circle class="CADDdot" r="3.5" cx="361.95373350360177" cy="197.16739130434783" style="fill: skyblue;"></circle><circle class="CADDdot" r="3.5" cx="367.7048413779538" cy="211.72391304347826" style="fill: skyblue;"></circle><circle class="CADDdot" r="3.5" cx="419.4069968769566" cy="194.95" style="fill: skyblue;"></circle><circle class="CADDdot" r="3.5" cx="426.20791015694437" cy="211.16304347826087" style="fill: skyblue;"></circle><circle class="CADDdot" r="3.5" cx="444.6723136392555" cy="198.4391304347826" style="fill: skyblue;"></circle><circle class="CADDdot" r="3.5" cx="453.7310692699147" cy="219.85" style="fill: skyblue;"></circle><circle class="CADDdot" r="3.5" cx="461.8495644068308" cy="202.40434782608696" style="fill: skyblue;"></circle><circle class="CADDdot" r="3.5" cx="474.52634504415903" cy="218.1086956521739" style="fill: skyblue;"></circle><circle class="CADDdot" r="3.5" cx="486.0437753639593" cy="206.17391304347828" style="fill: skyblue;"></circle><circle class="CADDdot" r="3.5" cx="493.2433104066667" cy="198.26304347826087" style="fill: skyblue;"></circle><circle class="CADDdot" r="3.5" cx="499.61212986752315" cy="184.60000000000002" style="fill: skyblue;"></circle><circle class="CADDdot" r="3.5" cx="501.6873973650407" cy="210.85000000000002" style="fill: skyblue;"></circle><circle class="CADDdot" r="3.5" cx="502.8984772242958" cy="189.6804347826087" style="fill: skyblue;"></circle><circle class="CADDdot" r="3.5" cx="503.5009742397041" cy="183.2304347826087" style="fill: blue;"></circle><circle class="CADDdot" r="3.5" cx="504.77291238334385" cy="185.63043478260872" style="fill: skyblue;"></circle><circle class="CADDdot" r="3.5" cx="505.13806208965184" cy="205.38478260869564" style="fill: skyblue;"></circle><circle class="CADDdot" r="3.5" cx="505.8135890463218" cy="191.59130434782608" style="fill: skyblue;"></circle><circle class="CADDdot" r="3.5" cx="505.8379323600757" cy="186.3869565217391" style="fill: skyblue;"></circle><circle class="CADDdot" r="3.5" cx="509.3707557686062" cy="214.8608695652174" style="fill: skyblue;"></circle><circle class="CADDdot" r="3.5" cx="509.3737986828254" cy="205.14347826086956" style="fill: skyblue;"></circle><circle class="CADDdot" r="3.5" cx="525.7629346676191" cy="218.00434782608696" style="fill: skyblue;"></circle><circle class="CADDdot" r="3.5" cx="527.9264466774944" cy="219.51739130434783" style="fill: skyblue;"></circle><circle class="CADDdot" r="3.5" cx="528.766291002003" cy="198.9282608695652" style="fill: skyblue;"></circle><circle class="CADDdot" r="3.5" cx="529.4083459022613" cy="218.3695652173913" style="fill: skyblue;"></circle><circle class="CADDdot" r="3.5" cx="529.5300624710306" cy="198.15217391304347" style="fill: skyblue;"></circle><circle class="CADDdot" r="3.5" cx="533.6714687234079" cy="200.8391304347826" style="fill: skyblue;"></circle><circle class="CADDdot" r="3.5" cx="535.2507412031904" cy="197.63695652173914" style="fill: skyblue;"></circle><circle class="CADDdot" r="3.5" cx="538.068479770201" cy="210.58260869565217" style="fill: grey;"></circle><circle class="CADDdot" r="3.5" cx="538.1628101109972" cy="182.0695652173913" style="fill: grey;"></circle><circle class="CADDdot" r="3.5" cx="539.8577133311104" cy="209.0695652173913" style="fill: grey;"></circle><circle class="CADDdot" r="3.5" cx="552.2849750024616" cy="186.25" style="fill: grey;"></circle><circle class="CADDdot" r="3.5" cx="553.3165229227818" cy="211.0521739130435" style="fill: grey;"></circle><circle class="CADDdot" r="3.5" cx="555.8634421242806" cy="202.01956521739132" style="fill: grey;"></circle><circle class="CADDdot" r="3.5" cx="556.910204615697" cy="211.23478260869567" style="fill: grey;"></circle><circle class="CADDdot" r="3.5" cx="559.7918443813115" cy="152.3695652173913" style="fill: grey;"></circle><circle class="CADDdot" r="3.5" cx="572.7272727272748" cy="180.5434782608696" style="fill: grey;"></circle><text text-anchor="middle" transform="translate(-40,145)rotate(-90)" style="font-family: sans-serif;">CADD score</text><g class="x axis CADD" transform="translate(0,220)"><g class="tick" transform="translate(97.07109363351191,0)" style="opacity: 1;"><line y2="6" x2="0" style="fill: none; stroke: grey;"></line></g><g class="tick" transform="translate(249.2168045952058,0)" style="opacity: 1;"><line y2="6" x2="0" style="fill: none; stroke: grey;"></line></g><g class="tick" transform="translate(401.36251555689967,0)" style="opacity: 1;"><line y2="6" x2="0" style="fill: none; stroke: grey;"></line></g><g class="tick" transform="translate(553.5082265185936,0)" style="opacity: 1;"><line y2="6" x2="0" style="fill: none; stroke: grey;"></line></g><path class="domain" d="M0,6V0H600V6" style="fill: none; stroke: grey;"></path></g><g class="y axis"><g class="tick" transform="translate(0,220)" style="opacity: 1;"><line x2="-6" y2="0" style="fill: none; stroke: grey;"></line><text dy=".32em" x="-9" y="0" style="text-anchor: end; font-size: 11px; font-family: sans-serif;">0</text></g><g class="tick" transform="translate(0,206.95652173913044)" style="opacity: 1;"><line x2="-6" y2="0" style="fill: none; stroke: grey;"></line><text dy=".32em" x="-9" y="0" style="text-anchor: end; font-size: 11px; font-family: sans-serif;">2</text></g><g class="tick" transform="translate(0,193.91304347826087)" style="opacity: 1;"><line x2="-6" y2="0" style="fill: none; stroke: grey;"></line><text dy=".32em" x="-9" y="0" style="text-anchor: end; font-size: 11px; font-family: sans-serif;">4</text></g><g class="tick" transform="translate(0,180.8695652173913)" style="opacity: 1;"><line x2="-6" y2="0" style="fill: none; stroke: grey;"></line><text dy=".32em" x="-9" y="0" style="text-anchor: end; font-size: 11px; font-family: sans-serif;">6</text></g><g class="tick" transform="translate(0,167.82608695652175)" style="opacity: 1;"><line x2="-6" y2="0" style="fill: none; stroke: grey;"></line><text dy=".32em" x="-9" y="0" style="text-anchor: end; font-size: 11px; font-family: sans-serif;">8</text></g><g class="tick" transform="translate(0,154.7826086956522)" style="opacity: 1;"><line x2="-6" y2="0" style="fill: none; stroke: grey;"></line><text dy=".32em" x="-9" y="0" style="text-anchor: end; font-size: 11px; font-family: sans-serif;">10</text></g><g class="tick" transform="translate(0,141.73913043478262)" style="opacity: 1;"><line x2="-6" y2="0" style="fill: none; stroke: grey;"></line><text dy=".32em" x="-9" y="0" style="text-anchor: end; font-size: 11px; font-family: sans-serif;">12</text></g><g class="tick" transform="translate(0,128.69565217391303)" style="opacity: 1;"><line x2="-6" y2="0" style="fill: none; stroke: grey;"></line><text dy=".32em" x="-9" y="0" style="text-anchor: end; font-size: 11px; font-family: sans-serif;">14</text></g><g class="tick" transform="translate(0,115.65217391304347)" style="opacity: 1;"><line x2="-6" y2="0" style="fill: none; stroke: grey;"></line><text dy=".32em" x="-9" y="0" style="text-anchor: end; font-size: 11px; font-family: sans-serif;">16</text></g><g class="tick" transform="translate(0,102.6086956521739)" style="opacity: 1;"><line x2="-6" y2="0" style="fill: none; stroke: grey;"></line><text dy=".32em" x="-9" y="0" style="text-anchor: end; font-size: 11px; font-family: sans-serif;">18</text></g><g class="tick" transform="translate(0,89.56521739130436)" style="opacity: 1;"><line x2="-6" y2="0" style="fill: none; stroke: grey;"></line><text dy=".32em" x="-9" y="0" style="text-anchor: end; font-size: 11px; font-family: sans-serif;">20</text></g><g class="tick" transform="translate(0,76.52173913043478)" style="opacity: 1;"><line x2="-6" y2="0" style="fill: none; stroke: grey;"></line><text dy=".32em" x="-9" y="0" style="text-anchor: end; font-size: 11px; font-family: sans-serif;">22</text></g><path class="domain" d="M-6,70H0V220H-6" style="fill: none; stroke: grey;"></path></g><circle class="RDBdot" r="3.5" cx="27.272727272725213" cy="358.57142857142856" style="fill: mediumaquamarine;"></circle><circle class="RDBdot" r="3.5" cx="27.70177817763719" cy="358.57142857142856" style="fill: mediumaquamarine;"></circle><circle class="RDBdot" r="3.5" cx="31.998373055195422" cy="358.57142857142856" style="fill: mediumaquamarine;"></circle><circle class="RDBdot" r="3.5" cx="32.91429023518482" cy="369.2857142857143" style="fill: mediumaquamarine;"></circle><circle class="RDBdot" r="3.5" cx="37.18045597055072" cy="347.85714285714283" style="fill: mediumaquamarine;"></circle><circle class="RDBdot" r="3.5" cx="43.403215548884006" cy="347.85714285714283" style="fill: mediumaquamarine;"></circle><circle class="RDBdot" r="3.5" cx="44.23088821651561" cy="305" style="fill: mediumaquamarine;"></circle><circle class="RDBdot" r="3.5" cx="54.32727759593362" cy="358.57142857142856" style="fill: mediumaquamarine;"></circle><circle class="RDBdot" r="3.5" cx="55.37404008735008" cy="347.85714285714283" style="fill: mediumaquamarine;"></circle><circle class="RDBdot" r="3.5" cx="116.9382805708899" cy="358.57142857142856" style="fill: mediumaquamarine;"></circle><circle class="RDBdot" r="3.5" cx="121.48439441442531" cy="369.2857142857143" style="fill: mediumaquamarine;"></circle><circle class="RDBdot" r="3.5" cx="123.63269185320443" cy="380" style="fill: mediumaquamarine;"></circle><circle class="RDBdot" r="3.5" cx="149.7682820822042" cy="369.2857142857143" style="fill: mediumaquamarine;"></circle><circle class="RDBdot" r="3.5" cx="156.71221233049593" cy="358.57142857142856" style="fill: mediumaquamarine;"></circle><circle class="RDBdot" r="3.5" cx="213.31041680824603" cy="369.2857142857143" style="fill: mediumaquamarine;"></circle><circle class="RDBdot" r="3.5" cx="214.31457850059323" cy="369.2857142857143" style="fill: mediumaquamarine;"></circle><circle class="RDBdot" r="3.5" cx="216.64240787830713" cy="369.2857142857143" style="fill: mediumaquamarine;"></circle><circle class="RDBdot" r="3.5" cx="224.24056468373414" cy="369.2857142857143" style="fill: mediumaquamarine;"></circle><circle class="RDBdot" r="3.5" cx="231.78699194743416" cy="358.57142857142856" style="fill: mediumaquamarine;"></circle><circle class="RDBdot" r="3.5" cx="231.86610771713424" cy="358.57142857142856" style="fill: mediumaquamarine;"></circle><circle class="RDBdot" r="3.5" cx="323.76211713799734" cy="369.2857142857143" style="fill: mediumaquamarine;"></circle><circle class="RDBdot" r="3.5" cx="331.1259695485433" cy="380" style="fill: mediumaquamarine;"></circle><circle class="RDBdot" r="3.5" cx="356.2573980851959" cy="369.2857142857143" style="fill: mediumaquamarine;"></circle><circle class="RDBdot" r="3.5" cx="357.3711046894355" cy="380" style="fill: mediumaquamarine;"></circle><circle class="RDBdot" r="3.5" cx="361.95373350360177" cy="380" style="fill: mediumaquamarine;"></circle><circle class="RDBdot" r="3.5" cx="367.7048413779538" cy="380" style="fill: mediumaquamarine;"></circle><circle class="RDBdot" r="3.5" cx="419.4069968769566" cy="358.57142857142856" style="fill: mediumaquamarine;"></circle><circle class="RDBdot" r="3.5" cx="426.20791015694437" cy="380" style="fill: mediumaquamarine;"></circle><circle class="RDBdot" r="3.5" cx="444.6723136392555" cy="326.42857142857144" style="fill: mediumaquamarine;"></circle><circle class="RDBdot" r="3.5" cx="453.7310692699147" cy="380" style="fill: mediumaquamarine;"></circle><circle class="RDBdot" r="3.5" cx="461.8495644068308" cy="358.57142857142856" style="fill: mediumaquamarine;"></circle><circle class="RDBdot" r="3.5" cx="474.52634504415903" cy="380" style="fill: mediumaquamarine;"></circle><circle class="RDBdot" r="3.5" cx="486.0437753639593" cy="358.57142857142856" style="fill: mediumaquamarine;"></circle><circle class="RDBdot" r="3.5" cx="493.2433104066667" cy="347.85714285714283" style="fill: mediumaquamarine;"></circle><circle class="RDBdot" r="3.5" cx="499.61212986752315" cy="380" style="fill: mediumaquamarine;"></circle><circle class="RDBdot" r="3.5" cx="501.6873973650407" cy="347.85714285714283" style="fill: mediumaquamarine;"></circle><circle class="RDBdot" r="3.5" cx="502.8984772242958" cy="347.85714285714283" style="fill: mediumaquamarine;"></circle><circle class="RDBdot" r="3.5" cx="503.5009742397041" cy="347.85714285714283" style="fill: mediumaquamarine;"></circle><circle class="RDBdot" r="3.5" cx="505.13806208965184" cy="380" style="fill: mediumaquamarine;"></circle><circle class="RDBdot" r="3.5" cx="505.8135890463218" cy="358.57142857142856" style="fill: mediumaquamarine;"></circle><circle class="RDBdot" r="3.5" cx="505.8379323600757" cy="358.57142857142856" style="fill: mediumaquamarine;"></circle><circle class="RDBdot" r="3.5" cx="525.7629346676191" cy="326.42857142857144" style="fill: mediumaquamarine;"></circle><circle class="RDBdot" r="3.5" cx="528.766291002003" cy="380" style="fill: mediumaquamarine;"></circle><circle class="RDBdot" r="3.5" cx="529.4083459022613" cy="369.2857142857143" style="fill: mediumaquamarine;"></circle><circle class="RDBdot" r="3.5" cx="529.5300624710306" cy="380" style="fill: mediumaquamarine;"></circle><circle class="RDBdot" r="3.5" cx="533.6714687234079" cy="380" style="fill: mediumaquamarine;"></circle><circle class="RDBdot" r="3.5" cx="535.2507412031904" cy="347.85714285714283" style="fill: mediumaquamarine;"></circle><circle class="RDBdot" r="3.5" cx="538.068479770201" cy="380" style="fill: grey;"></circle><circle class="RDBdot" r="3.5" cx="539.8577133311104" cy="369.2857142857143" style="fill: grey;"></circle><circle class="RDBdot" r="3.5" cx="552.2849750024616" cy="380" style="fill: grey;"></circle><circle class="RDBdot" r="3.5" cx="553.3165229227818" cy="369.2857142857143" style="fill: grey;"></circle><circle class="RDBdot" r="3.5" cx="555.8634421242806" cy="380" style="fill: grey;"></circle><circle class="RDBdot" r="3.5" cx="559.7918443813115" cy="358.57142857142856" style="fill: grey;"></circle><circle class="RDBdot" r="3.5" cx="572.7272727272748" cy="358.57142857142856" style="fill: grey;"></circle><text text-anchor="middle" transform="translate(-40,305)rotate(-90)" style="font-family: sans-serif;">RegulomeDB score</text><g class="x axis RDB" transform="translate(0,380)"><g class="tick" transform="translate(97.07109363351191,0)" style="opacity: 1;"><line y2="6" x2="0" style="fill: none; stroke: grey;"></line><text dy=".71em" y="9" x="0" style="text-anchor: middle; font-size: 11px; font-family: sans-serif;">23,500,000</text></g><g class="tick" transform="translate(249.2168045952058,0)" style="opacity: 1;"><line y2="6" x2="0" style="fill: none; stroke: grey;"></line><text dy=".71em" y="9" x="0" style="text-anchor: middle; font-size: 11px; font-family: sans-serif;">23,550,000</text></g><g class="tick" transform="translate(401.36251555689967,0)" style="opacity: 1;"><line y2="6" x2="0" style="fill: none; stroke: grey;"></line><text dy=".71em" y="9" x="0" style="text-anchor: middle; font-size: 11px; font-family: sans-serif;">23,600,000</text></g><g class="tick" transform="translate(553.5082265185936,0)" style="opacity: 1;"><line y2="6" x2="0" style="fill: none; stroke: grey;"></line><text dy=".71em" y="9" x="0" style="text-anchor: middle; font-size: 11px; font-family: sans-serif;">23,650,000</text></g><path class="domain" d="M0,6V0H600V6" style="fill: none; stroke: grey;"></path></g><text text-anchor="middle" transform="translate(300,420)" style="font-family: sans-serif;">Chromosome 10</text><g class="y axis"><g class="tick" transform="translate(0,230)" style="opacity: 1;"><line x2="-6" y2="0" style="fill: none; stroke: grey;"></line><text dy=".32em" x="-9" y="0" style="text-anchor: end; font-size: 11px; font-family: sans-serif;">1a</text></g><g class="tick" transform="translate(0,240.71428571428572)" style="opacity: 1;"><line x2="-6" y2="0" style="fill: none; stroke: grey;"></line><text dy=".32em" x="-9" y="0" style="text-anchor: end; font-size: 11px; font-family: sans-serif;">1b</text></g><g class="tick" transform="translate(0,251.42857142857142)" style="opacity: 1;"><line x2="-6" y2="0" style="fill: none; stroke: grey;"></line><text dy=".32em" x="-9" y="0" style="text-anchor: end; font-size: 11px; font-family: sans-serif;">1c</text></g><g class="tick" transform="translate(0,262.1428571428571)" style="opacity: 1;"><line x2="-6" y2="0" style="fill: none; stroke: grey;"></line><text dy=".32em" x="-9" y="0" style="text-anchor: end; font-size: 11px; font-family: sans-serif;">1d</text></g><g class="tick" transform="translate(0,272.85714285714283)" style="opacity: 1;"><line x2="-6" y2="0" style="fill: none; stroke: grey;"></line><text dy=".32em" x="-9" y="0" style="text-anchor: end; font-size: 11px; font-family: sans-serif;">1e</text></g><g class="tick" transform="translate(0,283.57142857142856)" style="opacity: 1;"><line x2="-6" y2="0" style="fill: none; stroke: grey;"></line><text dy=".32em" x="-9" y="0" style="text-anchor: end; font-size: 11px; font-family: sans-serif;">1f</text></g><g class="tick" transform="translate(0,294.2857142857143)" style="opacity: 1;"><line x2="-6" y2="0" style="fill: none; stroke: grey;"></line><text dy=".32em" x="-9" y="0" style="text-anchor: end; font-size: 11px; font-family: sans-serif;">2a</text></g><g class="tick" transform="translate(0,305)" style="opacity: 1;"><line x2="-6" y2="0" style="fill: none; stroke: grey;"></line><text dy=".32em" x="-9" y="0" style="text-anchor: end; font-size: 11px; font-family: sans-serif;">2b</text></g><g class="tick" transform="translate(0,315.7142857142857)" style="opacity: 1;"><line x2="-6" y2="0" style="fill: none; stroke: grey;"></line><text dy=".32em" x="-9" y="0" style="text-anchor: end; font-size: 11px; font-family: sans-serif;">2c</text></g><g class="tick" transform="translate(0,326.42857142857144)" style="opacity: 1;"><line x2="-6" y2="0" style="fill: none; stroke: grey;"></line><text dy=".32em" x="-9" y="0" style="text-anchor: end; font-size: 11px; font-family: sans-serif;">3a</text></g><g class="tick" transform="translate(0,337.1428571428571)" style="opacity: 1;"><line x2="-6" y2="0" style="fill: none; stroke: grey;"></line><text dy=".32em" x="-9" y="0" style="text-anchor: end; font-size: 11px; font-family: sans-serif;">3b</text></g><g class="tick" transform="translate(0,347.85714285714283)" style="opacity: 1;"><line x2="-6" y2="0" style="fill: none; stroke: grey;"></line><text dy=".32em" x="-9" y="0" style="text-anchor: end; font-size: 11px; font-family: sans-serif;">4</text></g><g class="tick" transform="translate(0,358.57142857142856)" style="opacity: 1;"><line x2="-6" y2="0" style="fill: none; stroke: grey;"></line><text dy=".32em" x="-9" y="0" style="text-anchor: end; font-size: 11px; font-family: sans-serif;">5</text></g><g class="tick" transform="translate(0,369.2857142857143)" style="opacity: 1;"><line x2="-6" y2="0" style="fill: none; stroke: grey;"></line><text dy=".32em" x="-9" y="0" style="text-anchor: end; font-size: 11px; font-family: sans-serif;">6</text></g><g class="tick" transform="translate(0,380)" style="opacity: 1;"><line x2="-6" y2="0" style="fill: none; stroke: grey;"></line><text dy=".32em" x="-9" y="0" style="text-anchor: end; font-size: 11px; font-family: sans-serif;">7</text></g><path class="domain" d="M-6,230H0V380H-6" style="fill: none; stroke: grey;"></path></g></g></svg>